<svg width="279" height="73" viewBox="0 0 279 73" fill="none" xmlns="http://www.w3.org/2000/svg">
<g clip-path="url(#clip0_13_42)">
<path d="M277.06 42.299C273.74 35.056 276.814 28.89 276.814 28.89V28.884C277.544 27.081 277.572 25.025 276.712 23.152C275.855 21.281 274.28 19.959 272.431 19.335C267.402 17.748 265.204 15.826 261.906 8.631C259.066 2.442 254.595 3.967 250.31 2.901C247.388 -1.965 237.806 -0.0870025 228.921 3.987C220.032 8.063 212.358 14.097 214.142 19.489C212.152 23.43 208.078 25.823 210.917 32.013C214.214 39.209 214.241 42.126 212.159 46.973H212.161C211.427 48.782 211.401 50.838 212.259 52.71C213.118 54.582 214.695 55.904 216.54 56.527L216.542 56.529C216.542 56.529 223.22 58.222 226.542 65.467C229.165 71.188 234.085 74.548 242.081 70.88C247.923 68.2 249.089 65.282 251.456 62.91C250.888 62.296 250.237 61.665 249.585 61.192C247.776 59.879 246.837 60.199 244.233 58.427C242.624 57.333 241.061 56.124 239.395 55.118C237.893 54.21 237.559 53.116 236.577 51.732C235.655 50.433 234.575 49.377 233.466 48.251C232.54 47.312 231.8 46.228 230.823 45.327C229.253 43.876 226.985 42.132 227.014 41.901C227.043 41.67 227.702 40.764 228.327 40.462C228.954 40.16 229.202 40.363 229.202 40.363C229.202 40.363 229.893 39.892 231.8 40.646C233.932 41.4756 235.794 42.8786 237.179 44.7C237.179 44.7 238.253 45.575 239.177 46.658C239.572 47.12 239.488 46.36 239.433 46.192C239.376 46.025 239.39 44.722 238.609 43.21C237.83 41.696 235.546 37.679 233.933 35.683C231.8 33.042 230.335 30.003 228.353 27.267C227.613 26.251 226.121 23.864 226.437 22.964C226.437 22.964 226.22 22.708 226.417 22.316C226.538 22.0783 226.709 21.8699 226.919 21.7056C227.129 21.5413 227.372 21.425 227.632 21.365C228.263 21.207 228.589 21.461 228.757 21.586C228.757 21.586 229.501 21.563 230.622 23.182C231.919 25.057 233.104 27 234.483 28.817C235.915 30.704 237.462 32.51 238.751 34.501C240.04 36.485 240.868 36.573 241.062 36.246C241.253 35.916 239.996 33.735 239.177 32.683C236.189 28.839 234.157 24.371 231.64 20.23C231.027 19.218 230.818 18.219 231.12 17.769C231.12 17.769 231.003 17.354 231.429 16.834C231.853 16.313 232.935 15.917 233.351 16.181C233.351 16.181 234.081 16.085 234.798 17.318C235.517 18.546 237.411 21.843 238.7 23.726C239.991 25.61 241.415 27.558 242.796 29.986C244.179 32.418 245.235 34.031 245.632 34.167C246.029 34.303 246.605 34.332 246.462 33.977C245.718 32.123 244.733 30.347 243.915 28.52C242.647 25.682 241.507 22.799 239.97 20.091C239.214 18.762 238.579 17.504 239.115 16.722C239.115 16.722 239.074 16.407 239.773 15.948C240.47 15.491 241.15 15.524 241.462 15.827C241.462 15.827 242.021 15.549 243.446 18.475C244.987 21.646 246.934 24.612 248.397 27.825C249.7 30.679 251.436 34.326 251.731 34.498C252.028 34.669 252.379 34.448 252.294 33.96C251.597 30.047 249.655 26.418 248.372 22.712C247.747 20.912 248.02 19.663 248.481 19.274C248.481 19.274 248.778 18.595 249.499 18.547C250.218 18.497 250.308 18.845 250.308 18.845C250.308 18.845 250.761 19.253 251.06 19.809C251.324 20.304 252.613 23.128 253.162 24.81C253.916 27.121 254.947 29.048 255.662 31.372C256.254 33.291 257.123 35.154 258.062 36.954C259.394 39.512 261.421 45.751 262.093 48.482C262.767 51.216 262.378 53.273 263.353 55.197C263.864 56.206 264.833 57.905 265.642 59.296C267.163 59.063 268.902 58.587 271.027 57.612C279.022 53.939 279.685 48.021 277.06 42.299Z" fill="#E60C12"/>
<path d="M51.008 20.416H52.976V25.816H51.008V20.416ZM51.992 9.568C53.528 9.568 54.888 9.808 56.072 10.288C57.256 10.752 58.184 11.408 58.856 12.256C59.544 13.104 59.888 14.104 59.888 15.256C59.888 16.408 59.544 17.416 58.856 18.28C58.184 19.128 57.256 19.784 56.072 20.248C54.888 20.712 53.528 20.944 51.992 20.944C50.472 20.944 49.112 20.712 47.912 20.248C46.728 19.784 45.8 19.128 45.128 18.28C44.456 17.416 44.12 16.408 44.12 15.256C44.12 14.104 44.456 13.104 45.128 12.256C45.8 11.408 46.728 10.752 47.912 10.288C49.112 9.808 50.472 9.568 51.992 9.568ZM51.992 11.176C50.84 11.176 49.816 11.344 48.92 11.68C48.024 12.016 47.32 12.496 46.808 13.12C46.296 13.728 46.04 14.44 46.04 15.256C46.04 16.072 46.296 16.792 46.808 17.416C47.32 18.04 48.024 18.52 48.92 18.856C49.816 19.192 50.84 19.36 51.992 19.36C53.144 19.36 54.168 19.192 55.064 18.856C55.96 18.52 56.664 18.04 57.176 17.416C57.704 16.792 57.968 16.072 57.968 15.256C57.968 14.44 57.704 13.728 57.176 13.12C56.664 12.496 55.96 12.016 55.064 11.68C54.168 11.344 53.144 11.176 51.992 11.176ZM42.2 25.432H61.88V27.088H42.2V25.432ZM66.9181 13.312H81.6301V14.944H66.9181V13.312ZM64.2541 17.056H83.9341V18.688H64.2541V17.056ZM66.9181 8.488H68.8621V14.08H66.9181V8.488ZM66.7021 20.608H81.4381V25.72H68.7421V28.504H66.7501V24.232H79.4701V22.168H66.7021V20.608ZM66.7501 28H82.1821V29.584H66.7501V28ZM102.124 8.152H104.116V29.896H102.124V8.152ZM92.6683 9.832C93.7403 9.832 94.6843 10.144 95.5003 10.768C96.3323 11.376 96.9803 12.248 97.4443 13.384C97.9243 14.52 98.1643 15.856 98.1643 17.392C98.1643 18.928 97.9243 20.264 97.4443 21.4C96.9803 22.536 96.3323 23.416 95.5003 24.04C94.6843 24.664 93.7403 24.976 92.6683 24.976C91.5963 24.976 90.6443 24.664 89.8123 24.04C88.9803 23.416 88.3243 22.536 87.8443 21.4C87.3803 20.264 87.1483 18.928 87.1483 17.392C87.1483 15.856 87.3803 14.52 87.8443 13.384C88.3243 12.248 88.9803 11.376 89.8123 10.768C90.6443 10.144 91.5963 9.832 92.6683 9.832ZM92.6683 11.608C91.9483 11.608 91.3163 11.848 90.7723 12.328C90.2443 12.792 89.8283 13.464 89.5243 14.344C89.2203 15.208 89.0683 16.224 89.0683 17.392C89.0683 18.56 89.2203 19.584 89.5243 20.464C89.8283 21.328 90.2443 22 90.7723 22.48C91.3163 22.96 91.9483 23.2 92.6683 23.2C93.3723 23.2 93.9883 22.96 94.5163 22.48C95.0603 22 95.4843 21.328 95.7883 20.464C96.0923 19.584 96.2443 18.56 96.2443 17.392C96.2443 16.224 96.0923 15.208 95.7883 14.344C95.4843 13.464 95.0603 12.792 94.5163 12.328C93.9883 11.848 93.3723 11.608 92.6683 11.608ZM117.32 10.456H131.288V12.088H117.32V10.456ZM115.184 25.048H134.792V26.704H115.184V25.048ZM130.208 10.456H132.176V12.64C132.176 13.552 132.16 14.528 132.128 15.568C132.112 16.592 132.048 17.728 131.936 18.976C131.824 20.224 131.632 21.632 131.36 23.2L129.344 22.984C129.632 21.512 129.832 20.16 129.944 18.928C130.072 17.696 130.144 16.56 130.16 15.52C130.192 14.48 130.208 13.52 130.208 12.64V10.456ZM152.119 8.152H154.111V19.096H152.119V8.152ZM153.559 12.64H157.303V14.32H153.559V12.64ZM138.295 9.112H140.287V17.44H138.295V9.112ZM138.295 16.384H140.023C141.575 16.384 143.167 16.32 144.799 16.192C146.431 16.048 148.127 15.8 149.887 15.448L150.127 17.104C148.303 17.472 146.567 17.728 144.919 17.872C143.271 18 141.639 18.064 140.023 18.064H138.295V16.384ZM140.311 20.152H154.111V25.48H142.351V28.768H140.383V23.944H152.119V21.736H140.311V20.152ZM140.383 27.952H154.879V29.584H140.383V27.952ZM162.641 10.5455L162.47 23.0909H160.493L160.322 10.5455H162.641ZM161.482 28.1364C161.061 28.1364 160.7 27.9858 160.399 27.6847C160.098 27.3835 159.947 27.0227 159.947 26.6023C159.947 26.1818 160.098 25.821 160.399 25.5199C160.7 25.2187 161.061 25.0682 161.482 25.0682C161.902 25.0682 162.263 25.2187 162.564 25.5199C162.865 25.821 163.016 26.1818 163.016 26.6023C163.016 26.8807 162.945 27.1364 162.803 27.3693C162.666 27.6023 162.482 27.7898 162.249 27.9318C162.021 28.0682 161.766 28.1364 161.482 28.1364ZM169.32 10.5455L169.15 23.0909H167.173L167.002 10.5455H169.32ZM168.161 28.1364C167.741 28.1364 167.38 27.9858 167.079 27.6847C166.778 27.3835 166.627 27.0227 166.627 26.6023C166.627 26.1818 166.778 25.821 167.079 25.5199C167.38 25.2187 167.741 25.0682 168.161 25.0682C168.582 25.0682 168.942 25.2187 169.244 25.5199C169.545 25.821 169.695 26.1818 169.695 26.6023C169.695 26.8807 169.624 27.1364 169.482 27.3693C169.346 27.6023 169.161 27.7898 168.928 27.9318C168.701 28.0682 168.445 28.1364 168.161 28.1364Z" fill="black"/>
<path d="M42.312 54.904H69.16V58.36H42.312V54.904ZM53.448 48.312H57.704V55.832H53.448V48.312ZM53.32 33.848H57.032V35.992C57.032 37.2507 56.8507 38.4667 56.488 39.64C56.1467 40.8133 55.624 41.9227 54.92 42.968C54.2373 44.0133 53.3947 44.9627 52.392 45.816C51.3893 46.648 50.2373 47.3627 48.936 47.96C47.656 48.5573 46.2373 48.9947 44.68 49.272L42.92 45.72C44.2853 45.5067 45.512 45.1653 46.6 44.696C47.688 44.2267 48.648 43.672 49.48 43.032C50.3333 42.3707 51.0373 41.656 51.592 40.888C52.168 40.0987 52.5947 39.288 52.872 38.456C53.1707 37.624 53.32 36.8027 53.32 35.992V33.848ZM54.12 33.848H57.864V35.992C57.864 36.824 58.0027 37.656 58.28 38.488C58.5787 39.32 59.0053 40.12 59.56 40.888C60.136 41.656 60.84 42.3707 61.672 43.032C62.504 43.672 63.464 44.2267 64.552 44.696C65.6613 45.1653 66.888 45.5067 68.232 45.72L66.472 49.272C64.9147 48.9733 63.496 48.536 62.216 47.96C60.936 47.3627 59.7947 46.648 58.792 45.816C57.7893 44.984 56.936 44.056 56.232 43.032C55.5493 41.9867 55.0267 40.8773 54.664 39.704C54.3013 38.5093 54.12 37.272 54.12 35.992V33.848ZM92.0695 32.152H96.3255V61.88H92.0695V32.152ZM73.1895 34.52H77.4135V41.752H83.5575V34.52H87.7815V54.968H73.1895V34.52ZM77.4135 45.048V51.576H83.5575V45.048H77.4135ZM110.723 34.168C112.259 34.168 113.646 34.4773 114.883 35.096C116.12 35.7147 117.091 36.5787 117.795 37.688C118.499 38.776 118.851 40.0347 118.851 41.464C118.851 42.872 118.499 44.1307 117.795 45.24C117.091 46.3493 116.12 47.2133 114.883 47.832C113.646 48.4507 112.259 48.76 110.723 48.76C109.166 48.76 107.768 48.4507 106.531 47.832C105.294 47.2133 104.312 46.3493 103.587 45.24C102.883 44.1307 102.531 42.872 102.531 41.464C102.531 40.0347 102.883 38.776 103.587 37.688C104.312 36.5787 105.294 35.7147 106.531 35.096C107.768 34.4773 109.166 34.168 110.723 34.168ZM110.723 37.816C109.955 37.816 109.262 37.9653 108.643 38.264C108.046 38.5413 107.566 38.9573 107.203 39.512C106.862 40.0453 106.691 40.696 106.691 41.464C106.691 42.232 106.862 42.8933 107.203 43.448C107.566 44.0027 108.046 44.4293 108.643 44.728C109.262 45.0053 109.955 45.144 110.723 45.144C111.47 45.144 112.142 45.0053 112.739 44.728C113.336 44.4293 113.806 44.0027 114.147 43.448C114.51 42.8933 114.691 42.232 114.691 41.464C114.691 40.696 114.51 40.0453 114.147 39.512C113.806 38.9573 113.336 38.5413 112.739 38.264C112.142 37.9653 111.47 37.816 110.723 37.816ZM121.635 32.152H125.891V61.88H121.635V32.152ZM101.795 55.896L101.315 52.44C103.043 52.44 104.952 52.4293 107.043 52.408C109.155 52.3653 111.32 52.28 113.539 52.152C115.779 52.0027 117.944 51.7787 120.035 51.48L120.323 54.552C118.19 54.9787 116.024 55.288 113.827 55.48C111.63 55.6507 109.507 55.768 107.459 55.832C105.411 55.8747 103.523 55.896 101.795 55.896ZM139.752 34.904H158.504V38.296H139.752V34.904ZM137 54.52H163.816V57.976H137V54.52ZM156.264 34.904H160.52V38.424C160.52 39.8107 160.498 41.2187 160.456 42.648C160.434 44.0773 160.349 45.6027 160.2 47.224C160.072 48.8453 159.816 50.68 159.432 52.728L155.176 52.344C155.56 50.4453 155.816 48.696 155.944 47.096C156.093 45.496 156.178 43.992 156.2 42.584C156.242 41.1547 156.264 39.768 156.264 38.424V34.904ZM185.477 32.184H189.733V46.808H185.477V32.184ZM188.581 37.72H193.669V41.176H188.581V37.72ZM167.621 33.496H171.877V44.952H167.621V33.496ZM167.621 42.52H170.085C172.09 42.52 174.181 42.4453 176.357 42.296C178.533 42.1253 180.773 41.816 183.077 41.368L183.557 44.792C181.168 45.2827 178.842 45.6133 176.581 45.784C174.341 45.9547 172.176 46.04 170.085 46.04H167.621V42.52ZM170.181 48.056H189.733V56.248H174.501V59.736H170.213V53.112H185.477V51.352H170.181V48.056ZM170.213 58.168H190.597V61.528H170.213V58.168Z" fill="black"/>
</g>
<defs>
<clipPath id="clip0_13_42">
<rect width="278.438" height="72.41" fill="white"/>
</clipPath>
</defs>
</svg>
